<?xml version="1.0" encoding="UTF-8"?>
<svg version="1.1" xmlns="http://www.w3.org/2000/svg" width="96" height="96">
<path d="M0 0 C3.73348779 1.55561991 6.0712852 3.43187762 8 7 C8.52974878 9.67960305 8.77238514 12.26862168 9 15 C13.99674745 14.62615576 16.47096306 12.04040037 19.75 8.5625 C20.24371094 8.05912109 20.73742188 7.55574219 21.24609375 7.03710938 C23.95264625 4.26250344 23.95264625 4.26250344 26 1 C29.1857029 2.39330742 31.19822217 4.02896738 33.5625 6.5625 C35.8343494 8.99626295 36.76779382 9.92259794 40 11 C42.97 7.7 45.94 4.4 49 1 C52.21453294 2.60726647 53.62221455 3.37903849 55.953125 5.79296875 C56.75278687 6.61039551 56.75278687 6.61039551 57.56860352 7.44433594 C58.12346436 8.01958008 58.6783252 8.59482422 59.25 9.1875 C67.39944756 18.59122891 67.39944756 18.59122891 78 24 C77.25423908 30.90332747 75.4201615 37.49273447 73.625 44.1875 C73.32078125 45.36248047 73.0165625 46.53746094 72.703125 47.74804688 C72.40148437 48.87662109 72.09984375 50.00519531 71.7890625 51.16796875 C71.51787598 52.19172607 71.24668945 53.2154834 70.96728516 54.27026367 C69.95753554 57.11983723 69.06621821 58.80364307 67 61 C64.74104309 61.48101807 64.74104309 61.48101807 62.06958008 61.45410156 C61.06876907 61.45379944 60.06795807 61.45349731 59.03681946 61.45318604 C57.95861435 61.43254089 56.88040924 61.41189575 55.76953125 61.390625 C54.66397385 61.38496521 53.55841644 61.37930542 52.4193573 61.37347412 C48.88330036 61.35105795 45.34825141 61.30084996 41.8125 61.25 C39.41733233 61.22994187 37.02214879 61.21168991 34.62695312 61.1953125 C28.75095733 61.151176 22.87555067 61.08421128 17 61 C17.47735786 63.10457775 17.95694829 65.20864922 18.4375 67.3125 C18.70433594 68.48425781 18.97117188 69.65601562 19.24609375 70.86328125 C19.95313969 74.00236971 19.95313969 74.00236971 21 77 C23.76507709 78.04369031 26.46703905 78.14490963 29.40136719 78.20532227 C30.2619574 78.22526749 31.12254761 78.24521271 32.00921631 78.26576233 C32.92914368 78.28247482 33.84907104 78.29918732 34.796875 78.31640625 C36.22003021 78.3475779 36.22003021 78.3475779 37.67193604 78.37937927 C40.69788482 78.44467934 43.7239192 78.50366888 46.75 78.5625 C48.80339421 78.6057038 50.85677982 78.64931869 52.91015625 78.69335938 C57.9400168 78.80034073 62.96996332 78.90166323 68 79 C68 79.99 68 80.98 68 82 C67.01 82.495 67.01 82.495 66 83 C66.061875 83.928125 66.12375 84.85625 66.1875 85.8125 C66 89 66 89 64.875 90.875 C62.08893958 92.54663625 60.18011138 92.46376624 57 92 C55.0625 90.375 55.0625 90.375 54 88 C54.33 86.02 54.66 84.04 55 82 C48.07 82 41.14 82 34 82 C34.495 85.465 34.495 85.465 35 89 C33.9375 90.9375 33.9375 90.9375 32 92 C28.85514075 92.39310741 26.86718329 92.47555213 24.0625 90.9375 C22.38323093 87.87530347 23.31378875 85.30629059 24 82 C22.8553125 81.62875 22.8553125 81.62875 21.6875 81.25 C18.51791368 79.77577381 17.74952051 79.01299776 16 76 C15.12981878 72.94687005 14.60404482 69.84983638 14.0703125 66.72265625 C13.90379181 65.7995314 13.73727112 64.87640656 13.56570435 63.92530823 C13.03246306 60.95209116 12.51531154 57.97637251 12 55 C11.65518024 53.04270763 11.30980574 51.08551291 10.96386719 49.12841797 C9.7461533 42.21260427 8.53727319 35.29522594 7.34912109 28.37426758 C6.83997183 25.41386062 6.32299542 22.45490895 5.8046875 19.49609375 C5.65256805 18.59829697 5.50044861 17.70050018 5.34371948 16.77549744 C5.1966153 15.94264725 5.04951111 15.10979706 4.89794922 14.25170898 C4.77233612 13.52451157 4.64672302 12.79731415 4.51730347 12.04808044 C3.94280391 9.77355229 3.23435182 7.99765006 2 6 C-1.0334467 4.23272142 -1.0334467 4.23272142 -4 3 C-3.979375 3.969375 -3.95875 4.93875 -3.9375 5.9375 C-4 9 -4 9 -5 10 C-8.4375 10.1875 -8.4375 10.1875 -12 10 C-14 8 -14 8 -14.3125 5 C-14.209375 4.01 -14.10625 3.02 -14 2 C-9.53862011 -0.97425326 -5.23225066 -0.49867492 0 0 Z " fill="#B5DCB9" transform="translate(16,2)"/>
<path d="M0 0 C3.73348779 1.55561991 6.0712852 3.43187762 8 7 C8.52974878 9.67960305 8.77238514 12.26862168 9 15 C13.99674745 14.62615576 16.47096306 12.04040037 19.75 8.5625 C20.24371094 8.05912109 20.73742188 7.55574219 21.24609375 7.03710938 C23.95264625 4.26250344 23.95264625 4.26250344 26 1 C29.1857029 2.39330742 31.19822217 4.02896738 33.5625 6.5625 C35.8343494 8.99626295 36.76779382 9.92259794 40 11 C42.97 7.7 45.94 4.4 49 1 C52.21453294 2.60726647 53.62221455 3.37903849 55.953125 5.79296875 C56.75327026 6.61051636 56.75327026 6.61051636 57.56958008 7.44458008 C58.40138794 8.30732544 58.40138794 8.30732544 59.25 9.1875 C63.98710141 14.02069137 68.78954073 18.67106859 74 23 C72.515 23.495 72.515 23.495 71 24 C70.53625977 23.53102295 70.07251953 23.0620459 69.59472656 22.57885742 C67.48247339 20.44575618 65.36628554 18.31660041 63.25 16.1875 C62.52039063 15.44951172 61.79078125 14.71152344 61.0390625 13.95117188 C60.33007812 13.23896484 59.62109375 12.52675781 58.890625 11.79296875 C57.91657715 10.81106567 57.91657715 10.81106567 56.92285156 9.80932617 C55.04205494 8.03957201 53.09529866 6.50625069 51 5 C47.78956118 6.38188453 45.95063635 7.92421903 43.75 10.625 C42.8425 11.73875 41.935 12.8525 41 14 C42.98 16.31 44.96 18.62 47 21 C43.56490312 19.28245156 42.16010497 18.37326952 39.6875 15.70703125 C39.08679687 15.07732422 38.48609375 14.44761719 37.8671875 13.79882812 C36.61653557 12.46837518 35.37177496 11.13236097 34.1328125 9.79101562 C33.53210937 9.16517578 32.93140625 8.53933594 32.3125 7.89453125 C31.77238281 7.31550049 31.23226562 6.73646973 30.67578125 6.13989258 C29.05091034 4.77417779 29.05091034 4.77417779 26.93823242 5.19433594 C24.10918978 6.37028262 22.43244935 8.24746968 20.3125 10.4375 C19.52488281 11.24058594 18.73726562 12.04367187 17.92578125 12.87109375 C15.96396071 14.84844053 15.96396071 14.84844053 15 17 C13.02 17 11.04 17 9 17 C9.12528076 17.61593018 9.25056152 18.23186035 9.37963867 18.86645508 C12.15441121 32.54149052 14.82708275 46.22890998 17.29956055 59.9621582 C18.34380254 65.70527207 19.50217259 71.35749947 21 77 C23.8543996 77.80616765 26.43906054 78.1443336 29.40136719 78.20532227 C30.2619574 78.22526749 31.12254761 78.24521271 32.00921631 78.26576233 C32.92914368 78.28247482 33.84907104 78.29918732 34.796875 78.31640625 C36.22003021 78.3475779 36.22003021 78.3475779 37.67193604 78.37937927 C40.69788482 78.44467934 43.7239192 78.50366888 46.75 78.5625 C48.80339421 78.6057038 50.85677982 78.64931869 52.91015625 78.69335938 C57.9400168 78.80034073 62.96996332 78.90166323 68 79 C68 79.99 68 80.98 68 82 C67.01 82.495 67.01 82.495 66 83 C66.061875 83.928125 66.12375 84.85625 66.1875 85.8125 C66 89 66 89 64.875 90.875 C62.08893958 92.54663625 60.18011138 92.46376624 57 92 C55.0625 90.375 55.0625 90.375 54 88 C54.33 86.02 54.66 84.04 55 82 C48.07 82 41.14 82 34 82 C34.495 85.465 34.495 85.465 35 89 C33.9375 90.9375 33.9375 90.9375 32 92 C28.85514075 92.39310741 26.86718329 92.47555213 24.0625 90.9375 C22.38323093 87.87530347 23.31378875 85.30629059 24 82 C22.8553125 81.62875 22.8553125 81.62875 21.6875 81.25 C18.51791368 79.77577381 17.74952051 79.01299776 16 76 C15.12981878 72.94687005 14.60404482 69.84983638 14.0703125 66.72265625 C13.90379181 65.7995314 13.73727112 64.87640656 13.56570435 63.92530823 C13.03246306 60.95209116 12.51531154 57.97637251 12 55 C11.65518024 53.04270763 11.30980574 51.08551291 10.96386719 49.12841797 C9.7461533 42.21260427 8.53727319 35.29522594 7.34912109 28.37426758 C6.83997183 25.41386062 6.32299542 22.45490895 5.8046875 19.49609375 C5.65256805 18.59829697 5.50044861 17.70050018 5.34371948 16.77549744 C5.1966153 15.94264725 5.04951111 15.10979706 4.89794922 14.25170898 C4.77233612 13.52451157 4.64672302 12.79731415 4.51730347 12.04808044 C3.94280391 9.77355229 3.23435182 7.99765006 2 6 C-1.0334467 4.23272142 -1.0334467 4.23272142 -4 3 C-3.979375 3.969375 -3.95875 4.93875 -3.9375 5.9375 C-4 9 -4 9 -5 10 C-8.4375 10.1875 -8.4375 10.1875 -12 10 C-14 8 -14 8 -14.3125 5 C-14.209375 4.01 -14.10625 3.02 -14 2 C-9.53862011 -0.97425326 -5.23225066 -0.49867492 0 0 Z " fill="#677A90" transform="translate(16,2)"/>
<path d="M0 0 C2.53644187 0.99605651 3.85865697 2.24946966 5.75830078 4.19824219 C6.75410156 5.20854492 6.75410156 5.20854492 7.77001953 6.23925781 C8.45193359 6.94630859 9.13384766 7.65335938 9.83642578 8.38183594 C10.53380859 9.09275391 11.23119141 9.80367187 11.94970703 10.53613281 C13.66889158 12.29064308 15.3806845 14.05176946 17.08642578 15.81933594 C16.42642578 15.05621094 15.76642578 14.29308594 15.08642578 13.50683594 C13.08642578 10.81933594 13.08642578 10.81933594 13.08642578 7.81933594 C14.83642578 5.77636719 14.83642578 5.77636719 17.08642578 3.63183594 C18.20017578 2.55869141 18.20017578 2.55869141 19.33642578 1.46386719 C19.91392578 0.92117187 20.49142578 0.37847656 21.08642578 -0.18066406 C24.02193256 1.16423772 26.296185 2.68159091 28.71142578 4.81933594 C29.40365234 5.43035156 30.09587891 6.04136719 30.80908203 6.67089844 C34.20815568 9.87757169 37.35621119 13.3211628 40.49658203 16.78027344 C43.69102062 19.29535178 46.08356263 19.55476481 50.08642578 19.81933594 C49.34066486 26.72266341 47.50658729 33.31207041 45.71142578 40.00683594 C45.40720703 41.18181641 45.10298828 42.35679688 44.78955078 43.56738281 C44.48791016 44.69595703 44.18626953 45.82453125 43.87548828 46.98730469 C43.60430176 48.01106201 43.33311523 49.03481934 43.05371094 50.08959961 C42.04396132 52.93917317 41.15264399 54.62297901 39.08642578 56.81933594 C36.82746887 57.300354 36.82746887 57.300354 34.15600586 57.2734375 C33.15519485 57.27313538 32.15438385 57.27283325 31.12324524 57.27252197 C30.04504013 57.25187683 28.96683502 57.23123169 27.85595703 57.20996094 C26.75039963 57.20430115 25.64484222 57.19864136 24.50578308 57.19281006 C20.96972614 57.17039389 17.43467719 57.1201859 13.89892578 57.06933594 C11.50375811 57.0492778 9.10857458 57.03102584 6.71337891 57.01464844 C0.83738311 56.97051194 -5.03802355 56.90354721 -10.91357422 56.81933594 C-11.24357422 56.15933594 -11.57357422 55.49933594 -11.91357422 54.81933594 C4.58642578 54.48933594 21.08642578 54.15933594 38.08642578 53.81933594 C39.87120022 48.46501263 41.58172889 43.23624475 43.08642578 37.81933594 C44.5854524 32.42284011 46.28345219 27.12007829 48.08642578 21.81933594 C47.42151123 21.75464111 46.75659668 21.68994629 46.0715332 21.62329102 C25.64863974 19.60610824 5.38205975 16.83504522 -14.91357422 13.81933594 C-14.25357422 13.48933594 -13.59357422 13.15933594 -12.91357422 12.81933594 C-12.63255859 12.23796875 -12.35154297 11.65660156 -12.06201172 11.05761719 C-10.61093884 8.22950575 -8.75213907 6.2829101 -6.53857422 4.00683594 C-5.76771484 3.19601562 -4.99685547 2.38519531 -4.20263672 1.54980469 C-1.91357422 -0.18066406 -1.91357422 -0.18066406 0 0 Z " fill="#6BA47C" transform="translate(43.91357421875,6.1806640625)"/>
<path d="M0 0 C8.6347392 3.95600386 15.61563662 12.17082441 22 19 C22 19.33 22 19.66 22 20 C17.993031 19.73002691 13.99787676 19.38118235 10 19 C8.93652344 18.91234375 7.87304688 18.8246875 6.77734375 18.734375 C0.1195875 17.96002156 -3.48379637 16.60223757 -7.890625 11.4609375 C-8.25671875 10.97882812 -8.6228125 10.49671875 -9 10 C-8.06409496 8.8944811 -7.12620142 7.79064547 -6.1875 6.6875 C-5.66542969 6.07261719 -5.14335938 5.45773438 -4.60546875 4.82421875 C-3.12827531 3.14575321 -1.59960869 1.56117966 0 0 Z " fill="#F1CB83" transform="translate(65,6)"/>
<path d="M0 0 C2.43579983 0.9441952 3.6975395 2.06991552 5.52587891 3.9284668 C6.14462891 4.55237305 6.76337891 5.1762793 7.40087891 5.8190918 C8.03509766 6.47393555 8.66931641 7.1287793 9.32275391 7.8034668 C9.97244141 8.45831055 10.62212891 9.1131543 11.29150391 9.7878418 C16.07275391 14.64944894 16.07275391 14.64944894 16.07275391 15.8034668 C6.31691999 15.23224694 -3.25869529 14.19822973 -12.92724609 12.8034668 C-11.3947656 9.21943985 -9.25978599 6.77496546 -6.55224609 3.9909668 C-5.78138672 3.18014648 -5.01052734 2.36932617 -4.21630859 1.53393555 C-1.92724609 -0.1965332 -1.92724609 -0.1965332 0 0 Z " fill="#EFCA82" transform="translate(43.92724609375,6.196533203125)"/>
<path d="M0 0 C3.1857029 1.39330742 5.19822217 3.02896738 7.5625 5.5625 C9.8343494 7.99626295 10.76779382 8.92259794 14 10 C16.97 6.7 19.94 3.4 23 0 C26.21453294 1.60726647 27.62221455 2.37903849 29.953125 4.79296875 C30.75327026 5.61051636 30.75327026 5.61051636 31.56958008 6.44458008 C32.12411865 7.01974365 32.67865723 7.59490723 33.25 8.1875 C37.98710141 13.02069137 42.78954073 17.67106859 48 22 C47.01 22.33 46.02 22.66 45 23 C44.53625977 22.53102295 44.07251953 22.0620459 43.59472656 21.57885742 C41.48247339 19.44575618 39.36628554 17.31660041 37.25 15.1875 C36.52039063 14.44951172 35.79078125 13.71152344 35.0390625 12.95117188 C34.33007812 12.23896484 33.62109375 11.52675781 32.890625 10.79296875 C32.24125977 10.1383667 31.59189453 9.48376465 30.92285156 8.80932617 C29.04205494 7.03957201 27.09529866 5.50625069 25 4 C21.78956118 5.38188453 19.95063635 6.92421903 17.75 9.625 C16.8425 10.73875 15.935 11.8525 15 13 C16.98 15.31 18.96 17.62 21 20 C17.56490312 18.28245156 16.16010497 17.37326952 13.6875 14.70703125 C13.08679688 14.07732422 12.48609375 13.44761719 11.8671875 12.79882812 C10.61653557 11.46837518 9.37177496 10.13236097 8.1328125 8.79101562 C7.53210938 8.16517578 6.93140625 7.53933594 6.3125 6.89453125 C5.77238281 6.31550049 5.23226562 5.73646973 4.67578125 5.13989258 C3.05355588 3.77851429 3.05355588 3.77851429 0.95410156 4.17626953 C-2.10459724 5.46563107 -3.96644875 7.68880857 -6.25 10.0625 C-7.58804688 11.44115234 -7.58804688 11.44115234 -8.953125 12.84765625 C-9.62859375 13.55792969 -10.3040625 14.26820312 -11 15 C-11.66 14.67 -12.32 14.34 -13 14 C-12.14535156 13.15695313 -11.29070313 12.31390625 -10.41015625 11.4453125 C-9.29413953 10.33867407 -8.17826128 9.23189598 -7.0625 8.125 C-6.49853516 7.56941406 -5.93457031 7.01382812 -5.35351562 6.44140625 C-2.30139972 3.5078429 -2.30139972 3.5078429 0 0 Z " fill="#9C7A46" transform="translate(42,3)"/>
<path d="M0 0 C2.4375 0.75 2.4375 0.75 4.4375 2.75 C4.625 5.8125 4.625 5.8125 4.4375 8.75 C3.4375 9.75 3.4375 9.75 0 9.9375 C-3.5625 9.75 -3.5625 9.75 -5.5625 7.75 C-5.875 4.75 -5.875 4.75 -5.5625 1.75 C-2.5625 -0.25 -2.5625 -0.25 0 0 Z " fill="#5FA673" transform="translate(7.5625,2.25)"/>
<path d="M0 0 C4.70588235 0.70588235 4.70588235 0.70588235 6 2 C6.125 4.5 6.125 4.5 6 7 C5 8 5 8 2.5625 8.1875 C0 8 0 8 -2 6 C-1.44444444 1.44444444 -1.44444444 1.44444444 0 0 Z " fill="#ACBDD0" transform="translate(74,84)"/>
<path d="M0 0 C2.625 0.375 2.625 0.375 5 1 C5.625 3.375 5.625 3.375 6 6 C4 8 4 8 1.375 8.125 C0.59125 8.08375 -0.1925 8.0425 -1 8 C-1.625 5.125 -1.625 5.125 -2 2 C-1.34 1.34 -0.68 0.68 0 0 Z " fill="#98AABE" transform="translate(43,84)"/>
<path d="M0 0 C1.67542976 0.28604898 3.34385343 0.61781233 5 1 C5.625 2.875 5.625 2.875 6 5 C5.34 5.66 4.68 6.32 4 7 C1.875 6.625 1.875 6.625 0 6 C-0.38218767 4.34385343 -0.71395102 2.67542976 -1 1 C-0.67 0.67 -0.34 0.34 0 0 Z " fill="#B3DBB8" transform="translate(5,4)"/>
<path d="M0 0 C2.125 0.375 2.125 0.375 4 1 C3.67 2.65 3.34 4.3 3 6 C1.68 6 0.36 6 -1 6 C-1.625 4.125 -1.625 4.125 -2 2 C-1.34 1.34 -0.68 0.68 0 0 Z " fill="#90A2B7" transform="translate(74,84)"/>
<path d="M0 0 C0.61875 0.33 1.2375 0.66 1.875 1 C3.91018344 2.14193235 3.91018344 2.14193235 6 2 C5.67 2.99 5.34 3.98 5 5 C3.35 5 1.7 5 0 5 C-0.5625 3.0625 -0.5625 3.0625 -1 1 C-0.67 0.67 -0.34 0.34 0 0 Z " fill="#ACBDD0" transform="translate(42,87)"/>
</svg>
