<?xml version="1.0" encoding="UTF-8"?>
<svg version="1.1" xmlns="http://www.w3.org/2000/svg" width="512" height="512">
<path d="M0 0 C1.01201477 0.00054382 2.02402954 0.00108765 3.06671143 0.00164795 C19.59887291 0.04238923 35.523992 0.95817716 51.75 4.375 C52.78125 4.58930664 53.8125 4.80361328 54.875 5.02441406 C101.10680927 14.94980561 143.72188765 37.60106665 177.75 70.375 C178.7390332 71.32318604 178.7390332 71.32318604 179.74804688 72.29052734 C189.23630305 81.43497479 197.9762044 90.73234009 205.75 101.375 C206.60806152 102.52605017 207.46613451 103.67709177 208.32421875 104.828125 C214.36236829 113.01930614 219.72095521 121.53304105 224.75 130.375 C225.11448242 131.00680176 225.47896484 131.63860352 225.85449219 132.28955078 C240.78473018 158.37464001 250.26385054 187.71085114 254.75 217.375 C254.92660156 218.49745117 255.10320312 219.61990234 255.28515625 220.77636719 C256.9420586 232.38947743 257.14873513 243.90679945 257.125 255.625 C257.12418427 257.14302216 257.12418427 257.14302216 257.12335205 258.69171143 C257.08261077 275.22387291 256.16682284 291.148992 252.75 307.375 C252.42854004 308.921875 252.42854004 308.921875 252.10058594 310.5 C242.17519439 356.73180927 219.52393335 399.34688765 186.75 433.375 C186.11787598 434.03435547 185.48575195 434.69371094 184.83447266 435.37304688 C175.69002521 444.86130305 166.39265991 453.6012044 155.75 461.375 C154.59894983 462.23306152 153.44790823 463.09113451 152.296875 463.94921875 C144.10569386 469.98736829 135.59195895 475.34595521 126.75 480.375 C126.11819824 480.73948242 125.48639648 481.10396484 124.83544922 481.47949219 C98.75035999 496.40973018 69.41414886 505.88885054 39.75 510.375 C38.62754883 510.55160156 37.50509766 510.72820312 36.34863281 510.91015625 C24.73552257 512.5670586 13.21820055 512.77373513 1.5 512.75 C-0.01802216 512.74918427 -0.01802216 512.74918427 -1.56671143 512.74835205 C-18.09887291 512.70761077 -34.023992 511.79182284 -50.25 508.375 C-51.796875 508.05354004 -51.796875 508.05354004 -53.375 507.72558594 C-99.60680927 497.80019439 -142.22188765 475.14893335 -176.25 442.375 C-176.90935547 441.74287598 -177.56871094 441.11075195 -178.24804688 440.45947266 C-187.73630305 431.31502521 -196.4762044 422.01765991 -204.25 411.375 C-205.10806152 410.22394983 -205.96613451 409.07290823 -206.82421875 407.921875 C-212.86236829 399.73069386 -218.22095521 391.21695895 -223.25 382.375 C-223.61448242 381.74319824 -223.97896484 381.11139648 -224.35449219 380.46044922 C-239.28473018 354.37535999 -248.76385054 325.03914886 -253.25 295.375 C-253.51490234 293.69132324 -253.51490234 293.69132324 -253.78515625 291.97363281 C-255.4420586 280.36052257 -255.64873513 268.84320055 -255.625 257.125 C-255.62445618 256.11298523 -255.62391235 255.10097046 -255.62335205 254.05828857 C-255.58261077 237.52612709 -254.66682284 221.601008 -251.25 205.375 C-251.03569336 204.34375 -250.82138672 203.3125 -250.60058594 202.25 C-240.67519439 156.01819073 -218.02393335 113.40311235 -185.25 79.375 C-184.61787598 78.71564453 -183.98575195 78.05628906 -183.33447266 77.37695312 C-174.19002521 67.88869695 -164.89265991 59.1487956 -154.25 51.375 C-153.09894983 50.51693848 -151.94790823 49.65886549 -150.796875 48.80078125 C-142.60569386 42.76263171 -134.09195895 37.40404479 -125.25 32.375 C-124.61819824 32.01051758 -123.98639648 31.64603516 -123.33544922 31.27050781 C-97.25035999 16.34026982 -67.91414886 6.86114946 -38.25 2.375 C-37.12754883 2.19839844 -36.00509766 2.02179687 -34.84863281 1.83984375 C-23.23552257 0.1829414 -11.71820055 -0.02373513 0 0 Z " fill="#9A7DBC" transform="translate(255.25,-0.375)"/>
<path d="M0 0 C0.75345703 -0.00322266 1.50691406 -0.00644531 2.28320312 -0.00976562 C7.79450865 0.04450865 7.79450865 0.04450865 10.0625 2.3125 C10.625 4.5625 10.625 4.5625 10.0625 7.3125 C5.43221459 12.27896296 -0.62053856 15.99545141 -6.1875 19.8125 C-25.61287643 33.28836045 -44.53840986 47.26918312 -61.9375 63.3125 C-62.8553125 64.1271875 -63.773125 64.941875 -64.71875 65.78125 C-90.85749384 89.16854712 -118.86930197 121.90314717 -121.140625 158.59375 C-121.28959057 167.39891812 -121.28959057 167.39891812 -117.9375 175.3125 C-112.33132487 180.91867513 -106.5106841 183.65576618 -98.68408203 183.78051758 C-97.57202393 183.76541138 -97.57202393 183.76541138 -96.4375 183.75 C-95.65358887 183.74315186 -94.86967773 183.73630371 -94.06201172 183.72924805 C-53.15231038 182.62436334 -16.51673872 146.82351558 10.75088501 119.79833984 C12.1625868 118.39968298 13.57772402 117.00449633 14.99291992 115.609375 C15.86408447 114.73925781 16.73524902 113.86914062 17.6328125 112.97265625 C18.41414551 112.19543213 19.19547852 111.41820801 20.00048828 110.61743164 C24.09347305 106.04226361 25.46355641 102.42172464 26.0625 96.3125 C2.85007415 99.98971598 -20.16912317 108.24050742 -41.703125 117.50195312 C-42.58484375 117.87771484 -43.4665625 118.25347656 -44.375 118.640625 C-45.15746094 118.98512695 -45.93992187 119.32962891 -46.74609375 119.68457031 C-49.26371463 120.40597416 -50.52855617 120.30122585 -52.9375 119.3125 C-54.5542707 116.07895861 -54.41381929 113.88489465 -53.9375 110.3125 C-40.08892327 94.04042234 -10.45160077 88.69117362 9.2421875 83.98144531 C20.16165474 81.36494507 30.41158488 78.84332418 39.0625 71.3125 C42.07574195 69.80587903 44.74536377 70.13479627 48.0625 70.3125 C48.7225 70.9725 49.3825 71.6325 50.0625 72.3125 C52.51300804 72.62335562 52.51300804 72.62335562 55.39501953 72.58374023 C57.06783493 72.59902016 57.06783493 72.59902016 58.77444458 72.61460876 C59.98583099 72.61674881 61.19721741 72.61888885 62.4453125 72.62109375 C65.00000217 72.6462655 67.55468961 72.67166334 70.109375 72.69726562 C74.14482542 72.72798208 78.18029808 72.7501641 82.21582031 72.76879883 C86.10502926 72.79051159 89.99376733 72.82997177 93.8828125 72.87109375 C95.68167404 72.87126747 95.68167404 72.87126747 97.51687622 72.8714447 C104.07667959 72.94859659 109.09016952 73.54392774 115.0625 76.3125 C114.3125 81.0625 114.3125 81.0625 112.0625 83.3125 C109.13598633 83.70727539 109.13598633 83.70727539 105.39453125 83.91015625 C104.72266281 83.94934677 104.05079437 83.98853729 103.35856628 84.02891541 C101.19776635 84.15305486 99.03652773 84.26433171 96.875 84.375 C95.46935236 84.45290258 94.06375237 84.53166998 92.65820312 84.61132812 C89.85362867 84.76946229 87.04894082 84.92526954 84.24414062 85.0793457 C80.12686428 85.30779642 76.01036894 85.54354227 71.89453125 85.796875 C70.72510986 85.86745117 69.55568848 85.93802734 68.35083008 86.01074219 C61.85632709 86.60671856 56.21571 87.52579383 51.125 91.75 C47.95528515 96.38442062 46.57815637 101.97161565 45.0625 107.3125 C44.79566406 108.21742188 44.52882813 109.12234375 44.25390625 110.0546875 C42.52446764 116.38102771 41.42974138 122.77521488 40.4375 129.25 C40.31431396 130.04792969 40.19112793 130.84585938 40.06420898 131.66796875 C38.38087815 143.20814974 37.91035741 154.72028872 37.9296875 166.37109375 C37.92873077 167.6766774 37.92777405 168.98226105 37.92678833 170.32740784 C37.9253267 173.07627565 37.92741274 175.82511066 37.93212891 178.57397461 C37.93777535 182.02606628 37.93445314 185.47808018 37.92872047 188.93016911 C37.01861969 219.04183694 37.01861969 219.04183694 41.9375 248.5 C42.32228516 249.85834961 42.32228516 249.85834961 42.71484375 251.24414062 C43.48036515 253.93885291 44.27103291 256.62531209 45.0625 259.3125 C45.63073657 261.28183683 46.19202996 263.25319136 46.74609375 265.2265625 C46.99415771 266.10135254 47.24222168 266.97614258 47.49780273 267.87744141 C48.25376239 271.13725186 48.28438749 273.9841876 48.0625 277.3125 C44.65314344 277.62964945 42.59411463 277.60488805 39.5625 275.9375 C16.11124369 251.31368087 21.7517511 203.07367963 21.46160889 171.61853027 C21.42075791 167.3934018 21.37004777 163.16839095 21.3203125 158.94335938 C21.22504585 150.733155 21.14019337 142.52288945 21.0625 134.3125 C20.4025 133.9825 19.7425 133.6525 19.0625 133.3125 C18.06734375 134.07691406 17.0721875 134.84132812 16.046875 135.62890625 C12.22385757 138.56236373 8.39247531 141.48475189 4.55957031 144.40527344 C2.1777505 146.22447332 -0.19643778 148.05326574 -2.5703125 149.8828125 C-20.4611229 163.58209353 -39.17587511 176.84191899 -59.14892578 187.34912109 C-61.05189101 188.37411438 -62.91361154 189.45620836 -64.77734375 190.55078125 C-71.85902889 194.63922288 -78.15337883 197.25475637 -86.42578125 198.05859375 C-88.93195511 198.1618159 -88.93195511 198.1618159 -90.9375 199.3125 C-103.12138315 200.09564206 -112.26796104 199.25159342 -121.8671875 191.2578125 C-129.50967059 184.07676235 -133.9376552 175.82270814 -134.46240234 165.25708008 C-135.1963961 121.1936235 -102.58152945 81.55406305 -73.75976562 51.19628906 C-69.35851058 46.64643859 -64.85558612 42.19478217 -60.34350586 37.75512695 C-53.20786494 30.91232652 -53.20786494 30.91232652 -46.9375 23.3125 C-46.9375 22.3225 -46.9375 21.3325 -46.9375 20.3125 C-49.87986782 18.10081775 -49.87986782 18.10081775 -52.9375 16.3125 C-52.24560547 14.34423828 -52.24560547 14.34423828 -50.9375 12.3125 C-48.72705078 11.83935547 -48.72705078 11.83935547 -46.0078125 11.8046875 C-39.74724288 11.4515481 -34.61463541 9.71428731 -28.8125 7.4375 C-25.18922712 6.05792748 -21.56405282 4.68342643 -17.9375 3.3125 C-17.15592529 3.01029541 -16.37435059 2.70809082 -15.5690918 2.39672852 C-10.27144633 0.46243052 -5.62285197 -0.12473052 0 0 Z " fill="#020203" transform="translate(336.9375,120.6875)"/>
<path d="M0 0 C5.73503453 1.55544295 9.73728648 6.68929148 12.9296875 11.44921875 C20.10192131 24.01861847 22.18709621 40.08322362 22.29418945 54.34448242 C22.30076065 55.07579376 22.30733185 55.8071051 22.31410217 56.56057739 C22.33363437 58.95444887 22.3454525 61.34825823 22.35546875 63.7421875 C22.35954428 64.56813227 22.3636198 65.39407703 22.36781883 66.24505043 C22.3885943 70.61722174 22.40293249 74.98936246 22.41235352 79.36157227 C22.42339967 83.84205585 22.45780341 88.3220404 22.49752522 92.80234814 C22.52385032 96.27967662 22.53205933 99.75688891 22.53563499 103.23430824 C22.54046003 104.88429446 22.55195501 106.53427695 22.57067299 108.18416405 C22.67929552 118.39287614 21.78728679 126.8990694 18.1171875 136.57421875 C17.55510716 138.21756159 16.99583762 139.8618733 16.44140625 141.5078125 C8.40910862 163.91037364 -2.4931641 186.18080482 -23.8828125 198.57421875 C-35.4358445 203.69854746 -48.20111979 205.94960618 -60.42578125 201.6640625 C-77.13437072 194.25278037 -88.68777407 180.26479055 -95.57746887 163.67085266 C-100.28933013 151.28401392 -100.75185392 139.69223395 -100.64453125 126.5546875 C-100.64603759 124.39520557 -100.6494772 122.23572422 -100.65473938 120.07624817 C-100.65903491 115.59083299 -100.64248784 111.10614593 -100.61010742 106.62084961 C-100.57001674 100.87516741 -100.57977268 95.13082426 -100.60434246 89.38509655 C-100.61851019 84.94380173 -100.60845619 80.50282077 -100.59082985 76.06154823 C-100.58499083 73.94167136 -100.58626643 71.82176228 -100.59485435 69.70189476 C-100.60284154 66.75129613 -100.57862873 63.80268228 -100.5456543 60.85229492 C-100.55420441 59.98217773 -100.56275452 59.11206055 -100.57156372 58.21557617 C-100.48684381 53.82570145 -100.27522832 52.08259398 -97.50544739 48.49433899 C-94.8828125 46.57421875 -94.8828125 46.57421875 -92.2578125 46.57421875 C-88.88206366 47.99558668 -87.49253333 49.39712027 -85.8147583 52.63615417 C-84.57443865 56.54640219 -84.62309918 60.2755822 -84.65917969 64.33325195 C-84.65856789 65.64178886 -84.65856789 65.64178886 -84.65794373 66.97676086 C-84.65774647 68.8684611 -84.66177515 70.76016547 -84.66954803 72.65184975 C-84.67980763 75.660225 -84.67436466 78.66818794 -84.66412354 81.67655945 C-84.63622506 90.22951382 -84.62345044 98.7822404 -84.65283203 107.33520508 C-84.66969726 112.57378226 -84.65702856 117.81162591 -84.62638092 123.05013084 C-84.62033085 125.03253062 -84.62499962 127.01499692 -84.64125824 128.99733925 C-84.78576896 147.40252404 -81.10987975 162.18824689 -68.8828125 176.57421875 C-60.97624746 184.10241682 -53.77301374 187.22832761 -42.99023438 187.19091797 C-32.35804484 186.81548755 -24.25956065 182.15905138 -16.5078125 174.94921875 C10.48104461 145.65967218 13.46962316 102.41044588 12.20831299 64.75531006 C11.50846826 48.00450545 9.87166013 26.65144533 -1.8828125 13.57421875 C-5.16507958 10.77749414 -7.58483735 10.06262502 -11.8828125 9.57421875 C-11.60534758 6.24463968 -11.07185146 4.78617152 -8.8203125 2.26171875 C-5.7901366 0.5209794 -3.51841263 -0.19251692 0 0 Z " fill="#020203" transform="translate(160.8828125,113.42578125)"/>
</svg>
